<?xml version="1.0" encoding="utf-8"?>
<!-- Generator: Adobe Illustrator 26.0.0, SVG Export Plug-In . SVG Version: 6.00 Build 0)  -->
<svg version="1.1" id="Camada_1" xmlns="http://www.w3.org/2000/svg" xmlns:xlink="http://www.w3.org/1999/xlink" x="0px" y="0px"
	 viewBox="0 0 630.5 38.6" style="enable-background:new 0 0 630.5 38.6;" xml:space="preserve">
<g>
	<g>
		<g>
			<g>
				<g>
					<path d="M43.3,26.2V6.3c0-0.4-0.3-0.7-0.7-0.7h-4.9c-0.4,0-0.7,0.3-0.7,0.7L37,32.1c0,0.4,0.3,0.7,0.7,0.7h13.9
						c0.4,0,0.7-0.3,0.7-0.8l-0.1-4.6c0-0.4-0.3-0.7-0.7-0.7h-7.8C43.5,26.8,43.3,26.5,43.3,26.2z"/>
					<path d="M57,6.3l0.1,25.9c0,0.4,0.3,0.7,0.7,0.7h5c0.4,0,0.7-0.3,0.7-0.7L63.5,6.3c0-0.4-0.3-0.7-0.7-0.7h-5
						C57.4,5.6,57,5.9,57,6.3z"/>
					<path d="M76.4,12.7c0.4-0.5,0.8-0.9,1.4-1.1c1.1-0.4,2.8-0.4,4.8-0.2c0.9,0.1,1.8,0.1,2.5,0.2c0.9,0.1,1.8,0.2,2.8,0.2l0,0
						c0.4,0,0.7-0.2,0.7-0.6l0.2-4.5c0-0.3-0.2-0.6-0.5-0.6l0,0c-1-0.2-2-0.3-3-0.5c-0.9-0.1-1.9-0.2-2.9-0.3c-1-0.1-2-0.1-2.9-0.1
						c-1.9,0-3.5,0.3-4.9,0.8c-1.4,0.5-2.5,1.4-3.4,2.5c-0.9,1.1-1.5,2.6-1.9,4.3c-0.4,1.7-0.6,3.8-0.6,6.1c0,2.2,0.2,4.2,0.5,6
						c0.4,1.8,1,3.3,1.8,4.6c0.9,1.3,2,2.3,3.4,2.9c1.4,0.7,3.1,1,5.2,1c0.7,0,1.5,0,2.4-0.1c0.9,0,1.8-0.1,2.7-0.3
						c0.8-0.1,1.5-0.4,2-1c0.5-0.5,0.9-1.1,1.2-1.8c0.3-0.7,0.5-1.5,0.6-2.3c0.1-0.8,0.2-1.7,0.3-2.7l0-5.5c0-1.2-1-2.2-2.2-2.2
						h-5.3c-1,0-1.9,0.8-1.9,1.9v1.9c0,1.1,0.9,2,2,2h0.4c0.4,0,0.6,0.3,0.6,0.6l0,1.8c0,0.6-0.2,1-0.4,1.2
						c-0.2,0.1-0.6,0.3-1.8,0.3c-1,0-1.8-0.1-2.4-0.4c-0.6-0.2-1-0.6-1.4-1.2c-0.4-0.6-0.6-1.4-0.8-2.4c-0.2-1.1-0.2-2.4-0.2-4
						c0-1.6,0.1-3,0.3-4.1C75.7,14.1,76,13.3,76.4,12.7z"/>
					<path d="M108.8,6.1c-0.1-0.3-0.3-0.5-0.6-0.5h-3.9c-3.8,0-6.3,1.8-7.2,5.4l-4.6,21.2c-0.1,0.4,0.2,0.7,0.6,0.7h5.4
						c0.3,0,0.5-0.2,0.6-0.5l0.7-3.5c0.1-0.3,0.3-0.5,0.6-0.5h6.5c0.3,0,0.5,0.2,0.6,0.5l1,3.6c0.1,0.3,0.3,0.5,0.6,0.5h5
						c0.4,0,0.7-0.4,0.6-0.7L108.8,6.1z M103.3,12.5c0.2-0.6,0.3-0.8,0.4-0.9c0.1,0,0.1-0.1,0.2-0.1l2.1,10.1
						c0.1,0.4-0.2,0.7-0.6,0.7h-3.5c-0.3,0-0.6-0.3-0.5-0.6L103.3,12.5z"/>
				</g>
			</g>
			<g>
				<g>
					<path d="M489.5,12.4C489.5,12.4,489.5,12.4,489.5,12.4l10.1,0V10h-10.1c-0.3,0-0.6,0-0.9,0.1c-0.4,0.1-0.8,0.3-1.1,0.6
						c-0.2,0.2-0.3,0.4-0.4,0.6c-0.1,0.3-0.2,0.6-0.2,1v15.5h2.6v-0.6V20h7.4v-2.4h-7.4V12.4z"/>
					<path d="M509.8,15.1c-0.3-0.4-0.7-0.6-1.2-0.8c-0.5-0.2-1-0.3-1.5-0.3h-6.8v0.6v1.8h6.7c0.2,0,0.4,0,0.5,0.1
						c0.2,0.1,0.3,0.2,0.3,0.2c0.1,0.1,0.2,0.3,0.2,0.5c0.1,0.3,0.1,0.5,0.1,0.6V19h-4.8c-0.4,0-0.8,0-1.3,0.1
						c-0.5,0.1-1,0.3-1.4,0.7c-0.6,0.5-0.9,1.1-1.1,1.7c-0.1,0.6-0.2,1.2-0.2,1.7c0,0.2,0,0.5,0,0.8c0,0.3,0.1,0.7,0.2,1
						c0.1,0.3,0.2,0.7,0.4,1c0.2,0.4,0.5,0.7,0.8,1c0.4,0.3,0.9,0.5,1.4,0.6c0.4,0.1,0.8,0.1,1.2,0.1h4.8c0.2,0,0.5,0,0.8-0.1
						c0.4,0,0.8-0.2,1-0.5c0.3-0.3,0.5-0.6,0.6-1c0-0.3,0.1-0.5,0.1-0.7V18c0-0.4,0-0.9-0.1-1.4C510.4,16.1,510.2,15.5,509.8,15.1
						 M508.2,25.4C508.2,25.4,508.1,25.4,508.2,25.4l-5.1,0c-0.2,0-0.3,0-0.4-0.1c-0.1-0.1-0.2-0.1-0.3-0.2
						c-0.1-0.2-0.2-0.4-0.3-0.7c-0.1-0.4-0.1-0.7-0.1-1.1c0-0.4,0-0.8,0.1-1c0-0.2,0.1-0.4,0.2-0.5c0,0,0.1-0.1,0.3-0.2
						c0.1-0.1,0.3-0.1,0.5-0.1h5.1V25.4z"/>
					<path d="M534.9,16.1c-0.2-0.4-0.5-0.6-0.8-0.9c-0.2-0.2-0.4-0.3-0.6-0.4c-0.6-0.3-1.2-0.6-1.9-0.7c-0.6-0.1-1.2-0.1-1.6-0.1
						c-0.7,0-1.4,0.1-2.1,0.2c-0.8,0.2-1.6,0.5-2.2,1c-0.5,0.4-0.8,0.8-1.1,1.3c-0.3,0.5-0.4,1-0.6,1.5c-0.1,0.5-0.2,1-0.2,1.5
						c0,0.5,0,0.9,0,1.4c0,0.9,0,1.8,0.1,2.6c0.1,0.9,0.4,1.7,1,2.4c0.3,0.4,0.6,0.7,0.9,0.9c0.3,0.2,0.7,0.4,1,0.6
						c0.3,0.1,0.7,0.2,1,0.3c0.3,0,0.6,0.1,0.9,0.1h6.8v-0.6v-1.8h-6.8c-0.3,0-0.6-0.1-0.8-0.2c-0.3-0.1-0.5-0.2-0.6-0.4
						c-0.2-0.2-0.3-0.3-0.4-0.5c-0.1-0.2-0.2-0.4-0.2-0.6c-0.1-0.3-0.1-0.7-0.2-1.1c0-0.2,0-0.4,0-0.6h7c0.2,0,0.5,0,0.7-0.1
						c0.4-0.1,0.7-0.2,1-0.5c0.2-0.2,0.3-0.4,0.4-0.6c0.1-0.2,0.2-0.4,0.2-0.6c0-0.2,0.1-0.4,0.1-0.5c0-0.1,0-0.3,0-0.4
						c0-0.7-0.1-1.3-0.3-1.9C535.3,16.9,535.1,16.5,534.9,16.1 M533.2,19.6h-6.8c0-0.3,0-0.6,0.1-0.9c0.1-0.4,0.2-0.7,0.4-1.1
						c0.2-0.3,0.4-0.5,0.6-0.7c0.2-0.2,0.4-0.3,0.7-0.3c0.3-0.1,0.5-0.1,0.8-0.1c0.3,0,0.6,0,0.9,0c0.3,0,0.5,0,0.8,0
						c0.2,0,0.5,0.1,0.7,0.1c0.2,0.1,0.4,0.1,0.7,0.3c0.2,0.1,0.4,0.2,0.5,0.5c0.2,0.2,0.3,0.5,0.5,0.8c0.1,0.3,0.2,0.7,0.2,1.3
						V19.6z"/>
					<path d="M560.5,22.7c-0.1-0.5-0.5-1-1-1.3c-0.4-0.4-1-0.6-1.6-0.8c-0.6-0.2-1.2-0.3-2-0.5l-2.3-0.5h0c-0.1,0-0.2,0-0.4-0.1
						c-0.2-0.1-0.4-0.1-0.6-0.2c-0.2-0.1-0.4-0.1-0.5-0.2c-0.2-0.1-0.2-0.1-0.3-0.2c-0.2-0.2-0.2-0.3-0.3-0.5
						c-0.1-0.3-0.1-0.5-0.1-0.7c0-0.1,0-0.3,0.1-0.6c0-0.2,0.1-0.3,0.2-0.4c0.1-0.1,0.2-0.2,0.4-0.2c0.3,0,0.5-0.1,0.6-0.1h7.1V14
						h-6.6c-0.6,0-1.2,0.1-1.8,0.2c-0.7,0.1-1.3,0.6-1.7,1.2c-0.5,0.7-0.8,1.5-0.8,2.4c0,0.4,0.1,0.8,0.2,1.2
						c0.1,0.5,0.4,0.9,0.7,1.3c0.1,0.1,0.2,0.2,0.4,0.4c0.2,0.2,0.4,0.3,0.6,0.4c0.3,0.2,0.6,0.3,0.9,0.4c0.4,0.1,0.8,0.3,1.3,0.4
						l2.2,0.5c0.4,0.1,0.8,0.2,1.2,0.3c0.3,0.1,0.6,0.1,0.8,0.2c0.2,0.1,0.4,0.1,0.5,0.2c0.1,0.1,0.2,0.1,0.2,0.1
						c0,0,0.1,0.1,0.2,0.3c0,0.1,0.1,0.2,0.1,0.5c0,0.2,0,0.4-0.1,0.7c0,0.2-0.1,0.4-0.1,0.4c0,0.1-0.1,0.1-0.3,0.2
						c-0.1,0.1-0.3,0.1-0.6,0.1h-7.8v2.4h0.6h7.2c0.3,0,0.6,0,1-0.1c0.5-0.1,0.9-0.2,1.3-0.5c0.3-0.2,0.5-0.4,0.7-0.7
						c0.2-0.3,0.3-0.5,0.4-0.8c0.1-0.3,0.2-0.6,0.2-0.9c0-0.3,0-0.5,0-0.8C560.7,23.6,560.7,23.1,560.5,22.7"/>
					<path d="M517.2,25.4c-0.3,0-0.6-0.1-0.9-0.2c-0.3-0.1-0.5-0.2-0.8-0.5c-0.2-0.2-0.4-0.4-0.6-0.8c-0.1-0.1-0.1-0.3-0.2-0.5
						c-0.1-0.2-0.1-0.5-0.1-0.7c0-0.3-0.1-0.5-0.1-0.8c0-0.3,0-0.5,0-0.7c0-0.1,0-0.3,0-0.6c0-0.2,0-0.5,0-0.8c0-0.3,0-0.6,0.1-0.8
						c0-0.2,0.1-0.4,0.1-0.5c0.2-0.6,0.5-1.1,1-1.5c0.5-0.4,1.1-0.6,2-0.6h5V14h-4.9c-1.1,0-1.9,0.1-2.7,0.5
						c-0.7,0.3-1.2,0.7-1.7,1.1c-0.4,0.4-0.7,0.8-0.9,1.3c-0.2,0.5-0.4,0.9-0.5,1.4c-0.1,0.5-0.2,1-0.2,1.4c0,0.5,0,0.9,0,1.3
						c0,1,0.1,1.8,0.2,2.6c0.1,0.9,0.5,1.6,1.1,2.3c0.4,0.5,1,0.9,1.6,1.3c0.7,0.4,1.6,0.5,2.5,0.5h5.6v-0.6v-1.8h-5
						C517.8,25.4,517.5,25.4,517.2,25.4"/>
					<path d="M546.7,15.1c-0.4-0.5-1-0.8-1.6-0.9c-0.5-0.1-1.1-0.2-1.8-0.2h-4.5c-0.2,0-0.5,0-0.8,0.1c-0.4,0.1-0.7,0.3-1,0.6
						c-0.2,0.3-0.3,0.6-0.4,0.9c0,0.2-0.1,0.5-0.1,0.7v11.5h0.6h1.9V16.4h4.2c0.4,0,0.7,0,0.9,0.1c0.2,0.1,0.4,0.2,0.6,0.4
						c0.2,0.2,0.3,0.4,0.3,0.6c0.1,0.3,0.1,0.7,0.1,1.2v9h2.5v-9.3c0-0.9-0.1-1.7-0.4-2.3C547.2,15.8,547,15.4,546.7,15.1"/>
				</g>
				<g>
					<path d="M137.9,23.4H133V12.9c0-0.1-0.1-0.2-0.2-0.2H132c-0.1,0-0.2,0.1-0.2,0.2v11.5c0,0.1,0.1,0.2,0.2,0.2h5.9
						c0.1,0,0.2-0.1,0.2-0.2v-0.7C138.1,23.6,138,23.4,137.9,23.4z"/>
					<path d="M146.5,19.2c0-2.3-1.1-3.5-3.1-3.5c-0.9,0-1.8,0.3-2.5,0.7c-0.1,0.1-0.1,0.2-0.1,0.3l0.3,0.6c0,0.1,0.1,0.1,0.2,0.1
						c0.1,0,0.1,0,0.2,0c0.5-0.4,1.2-0.6,2-0.6c0.6,0,1,0.2,1.3,0.4c0.4,0.4,0.5,0.9,0.5,1.7c-2,0-3.4,0.4-4.2,1.3
						c-0.5,0.5-0.8,1.2-0.8,2c0,1.2,0.8,2.5,2.6,2.5c1.1,0,1.9-0.5,2.5-1l0.1,0.6c0,0.1,0.1,0.2,0.2,0.2h0.8c0.1,0,0.1,0,0.2-0.1
						s0.1-0.1,0.1-0.2c-0.1-0.6-0.1-1.3-0.1-1.9V19.2z M145.2,20.2v1.5c0,0.1,0,0.3-0.1,0.4c-0.2,0.7-0.9,1.5-2.2,1.5
						c-0.7,0-1.4-0.4-1.4-1.5c0-0.5,0.1-0.8,0.5-1.1c0.5-0.5,1.6-0.8,3.1-0.8C145.1,20.2,145.2,20.2,145.2,20.2z"/>
					<path d="M154.3,15.7c-1.2,0-2.1,0.4-2.8,1.2v-4.7c0-0.1-0.1-0.2-0.2-0.2h-0.8c-0.1,0-0.2,0.1-0.2,0.2v10.2c0,0.7,0,1.4-0.1,1.9
						c0,0.1,0,0.1,0.1,0.2c0,0,0.1,0.1,0.2,0.1h0.7c0.1,0,0.2-0.1,0.2-0.2l0-0.8c0.7,0.8,1.6,1.2,2.8,1.2c1.9,0,3.9-1.6,3.9-4.6
						C158.1,17.6,156.5,15.7,154.3,15.7z M156.8,20.2c0,2.1-1,3.4-2.7,3.4c-1.2,0-2.1-0.7-2.5-1.9c0-0.2-0.1-0.3-0.1-0.5v-1.6
						c0-0.3,0-0.4,0.1-0.7c0.3-1.2,1.4-2,2.5-2C155.9,16.9,156.8,18.6,156.8,20.2z"/>
					<path d="M164.7,15.7c-2,0-4.1,1.6-4.1,4.6c0,2.6,1.7,4.5,4,4.5c2,0,4.2-1.4,4.2-4.6C168.7,17.6,167.1,15.7,164.7,15.7z
						 M167.4,20.2c0,1.9-1.2,3.4-2.8,3.4c-1.6,0-2.7-1.4-2.7-3.3c0-1.7,0.9-3.4,2.8-3.4C166.7,16.9,167.4,18.9,167.4,20.2z"/>
					<path d="M175.6,15.8c-0.1,0-0.2,0-0.4,0c-0.9,0-1.6,0.5-2.2,1.2l0-0.8c0-0.1-0.1-0.2-0.2-0.2H172c-0.1,0-0.1,0-0.2,0.1
						c0,0-0.1,0.1-0.1,0.2c0,0.7,0.1,1.5,0.1,2.4v5.7c0,0.1,0.1,0.2,0.2,0.2h0.8c0.1,0,0.2-0.1,0.2-0.2v-4.5c0-0.3,0-0.5,0.1-0.7
						c0.2-1.3,1-2.1,1.9-2.1c0.1,0,0.2,0,0.3,0c0.1,0,0.2,0,0.2,0c0.1,0,0.1-0.1,0.1-0.2V16C175.8,15.9,175.7,15.8,175.6,15.8z"/>
					<path d="M184.1,19.2c0-2.3-1.1-3.5-3.1-3.5c-0.9,0-1.8,0.3-2.5,0.7c-0.1,0.1-0.1,0.2-0.1,0.3l0.3,0.6c0,0.1,0.1,0.1,0.2,0.1
						c0.1,0,0.1,0,0.2,0c0.5-0.4,1.2-0.6,1.9-0.6c0.6,0,1,0.1,1.3,0.4c0.4,0.4,0.5,0.9,0.5,1.7c-2,0-3.4,0.4-4.2,1.3
						c-0.5,0.5-0.8,1.2-0.8,2c0,1.2,0.8,2.5,2.6,2.5c1.1,0,1.9-0.5,2.5-1l0.1,0.6c0,0.1,0.1,0.2,0.2,0.2h0.8c0.1,0,0.1,0,0.2-0.1
						s0.1-0.1,0.1-0.2c-0.1-0.6-0.1-1.3-0.1-1.9V19.2z M182.8,20.2v1.5c0,0.1,0,0.3-0.1,0.4c-0.2,0.7-0.9,1.5-2.2,1.5
						c-0.7,0-1.4-0.4-1.4-1.5c0-0.5,0.1-0.8,0.5-1.1c0.5-0.5,1.6-0.8,3.1-0.8C182.7,20.2,182.7,20.2,182.8,20.2z"/>
					<path d="M191.5,15.9h-2.1v-1.6c0-0.1,0-0.2-0.1-0.2c-0.1,0-0.1-0.1-0.2,0l-0.8,0.3c-0.1,0-0.2,0.1-0.2,0.2v1.3H187
						c-0.1,0-0.2,0.1-0.2,0.2v0.7c0,0.1,0.1,0.2,0.2,0.2h1.1V22c0,1,0.2,1.7,0.6,2.1c0.3,0.4,0.9,0.7,1.6,0.7c0.5,0,0.9-0.1,1.2-0.2
						c0.1,0,0.2-0.2,0.1-0.3l-0.1-0.6c0-0.1-0.1-0.1-0.1-0.2c-0.1,0-0.1,0-0.2,0c-0.1,0-0.4,0.1-0.9,0.1c-0.4,0-1-0.2-1-1.4v-5.1
						h2.1c0.1,0,0.2-0.1,0.2-0.2v-0.7C191.8,16,191.7,15.9,191.5,15.9z"/>
					<path d="M198.1,15.7c-2,0-4.1,1.6-4.1,4.6c0,2.6,1.7,4.5,4,4.5c2,0,4.2-1.4,4.2-4.6C202.1,17.6,200.5,15.7,198.1,15.7z
						 M200.8,20.2c0,1.9-1.2,3.4-2.8,3.4c-1.6,0-2.7-1.4-2.7-3.3c0-1.7,0.9-3.4,2.8-3.4C200.1,16.9,200.8,18.9,200.8,20.2z"/>
					<path d="M197.3,15.2h0.6c0.1,0,0.1,0,0.2-0.1l2.1-2.4c0.1-0.1,0.1-0.2,0-0.3c0-0.1-0.1-0.1-0.2-0.1h-1.2c-0.1,0-0.2,0-0.2,0.1
						l-1.5,2.4c0,0.1-0.1,0.2,0,0.2C197.1,15.2,197.2,15.2,197.3,15.2z"/>
					<path d="M209,15.8c-0.1,0-0.2,0-0.4,0c-0.9,0-1.6,0.5-2.2,1.2l0-0.8c0-0.1-0.1-0.2-0.2-0.2h-0.8c-0.1,0-0.1,0-0.2,0.1
						c0,0-0.1,0.1-0.1,0.2c0,0.7,0.1,1.5,0.1,2.4v5.7c0,0.1,0.1,0.2,0.2,0.2h0.8c0.1,0,0.2-0.1,0.2-0.2v-4.5c0-0.3,0-0.5,0.1-0.7
						c0.2-1.3,1-2.1,1.9-2.1c0.1,0,0.2,0,0.3,0c0.1,0,0.2,0,0.2,0c0.1,0,0.1-0.1,0.1-0.2V16C209.2,15.9,209.1,15.8,209,15.8z"/>
					<path d="M213,15.9h-0.8c-0.1,0-0.2,0.1-0.2,0.2v8.2c0,0.1,0.1,0.2,0.2,0.2h0.8c0.1,0,0.2-0.1,0.2-0.2v-8.2
						C213.2,16,213.1,15.9,213,15.9z"/>
					<path d="M212.6,12.9c-0.5,0-0.9,0.4-0.9,1c0,0.5,0.4,0.9,0.9,0.9c0.5,0,0.9-0.4,0.9-0.9C213.5,13.3,213.1,12.9,212.6,12.9z"/>
					<path d="M220.5,15.7c-2,0-4.1,1.6-4.1,4.6c0,2.6,1.7,4.5,4,4.5c2,0,4.2-1.4,4.2-4.6C224.5,17.6,222.9,15.7,220.5,15.7z
						 M223.2,20.2c0,1.9-1.2,3.4-2.8,3.4c-1.6,0-2.7-1.4-2.7-3.3c0-1.7,0.9-3.4,2.8-3.4C222.5,16.9,223.2,18.9,223.2,20.2z"/>
					<path d="M240,12.2c0-0.1-0.1-0.2-0.2-0.2H239c-0.1,0-0.2,0.1-0.2,0.2v4.5c-0.5-0.5-1.3-1-2.5-1c-1,0-1.9,0.4-2.6,1.1
						c-0.9,0.9-1.3,2.1-1.3,3.6c0,2.5,1.6,4.4,3.8,4.4c1.1,0,2.1-0.5,2.7-1.2l0,0.8c0,0.1,0.1,0.2,0.2,0.2h0.7c0.1,0,0.1,0,0.2-0.1
						c0,0,0.1-0.1,0.1-0.2c0-0.5-0.1-1.2-0.1-1.9V12.2z M238.7,19.4v1.6c0,0.2,0,0.4-0.1,0.6c-0.3,1.2-1.3,2-2.4,2
						c-1.9,0-2.6-1.8-2.6-3.3c0-2.1,1.1-3.4,2.7-3.4c1.3,0,2.1,0.9,2.3,1.8C238.7,18.9,238.7,19.1,238.7,19.4z"/>
					<path d="M247.1,15.7c-2.3,0-3.9,1.9-3.9,4.7c0,2.6,1.6,4.4,4.1,4.4c1.5,0,2.4-0.4,2.7-0.6c0.1-0.1,0.1-0.2,0.1-0.3l-0.2-0.6
						c0-0.1-0.1-0.1-0.1-0.1c-0.1,0-0.1,0-0.2,0c-0.5,0.2-1.1,0.4-2.2,0.4c-1.8,0-2.8-1.2-2.9-3.2h5.8c0.1,0,0.2-0.1,0.2-0.2
						c0-0.2,0-0.3,0-0.5C250.5,18.2,249.8,15.7,247.1,15.7z M244.5,19.3c0.2-1.2,1-2.4,2.5-2.4c0.6,0,1.1,0.2,1.5,0.6
						c0.5,0.6,0.7,1.4,0.7,1.8H244.5z"/>
					<path d="M260.1,12.6h-0.8c-0.1,0-0.2,0.1-0.2,0.2v11.5c0,0.1,0.1,0.2,0.2,0.2h0.8c0.1,0,0.2-0.1,0.2-0.2V12.9
						C260.3,12.7,260.2,12.6,260.1,12.6z"/>
					<path d="M268,15.7c-1,0-2,0.5-2.6,1.2l0-0.8c0-0.1-0.1-0.2-0.2-0.2h-0.8c-0.1,0-0.1,0-0.2,0.1c0,0-0.1,0.1-0.1,0.2
						c0,0.6,0.1,1.2,0.1,1.9v6.2c0,0.1,0.1,0.2,0.2,0.2h0.8c0.1,0,0.2-0.1,0.2-0.2v-5.1c0-0.2,0-0.4,0.1-0.7c0.3-1,1.2-1.7,2.2-1.7
						c1.8,0,2,1.6,2,2.6v4.8c0,0.1,0.1,0.2,0.2,0.2h0.8c0.1,0,0.2-0.1,0.2-0.2v-4.9C271.2,16.7,269.5,15.7,268,15.7z"/>
					<path d="M278.4,15.7c-2,0-4.1,1.6-4.1,4.6c0,2.6,1.7,4.5,4,4.5c2,0,4.2-1.4,4.2-4.6C282.4,17.6,280.7,15.7,278.4,15.7z
						 M281.1,20.2c0,1.9-1.2,3.4-2.8,3.4c-1.6,0-2.7-1.4-2.7-3.3c0-1.7,0.9-3.4,2.8-3.4C280.4,16.9,281.1,18.9,281.1,20.2z"/>
					<path d="M291.9,15.9h-0.9c-0.1,0-0.2,0.1-0.2,0.2l-1.9,5.1l-0.3,0.6c-0.1,0.3-0.3,0.6-0.4,1c-0.2-0.5-0.4-1-0.6-1.6l-1.9-5.1
						c0-0.1-0.1-0.2-0.2-0.2h-0.9c-0.1,0-0.2,0-0.2,0.1c0,0.1-0.1,0.1,0,0.2l3.2,8.2c0,0.1,0.1,0.2,0.2,0.2h0.7
						c0.1,0,0.2-0.1,0.2-0.2l3.3-8.2c0-0.1,0-0.2,0-0.2C292.1,16,292,15.9,291.9,15.9z"/>
					<path d="M300.4,19.2c0-2.3-1.1-3.5-3.1-3.5c-0.9,0-1.8,0.3-2.5,0.7c-0.1,0.1-0.1,0.2-0.1,0.3l0.3,0.6c0,0.1,0.1,0.1,0.2,0.1
						c0.1,0,0.1,0,0.2,0c0.5-0.4,1.2-0.6,2-0.6c0.6,0,1,0.2,1.3,0.4c0.4,0.4,0.5,0.9,0.5,1.7c-2,0-3.4,0.4-4.2,1.3
						c-0.5,0.5-0.8,1.2-0.8,2c0,1.2,0.8,2.5,2.6,2.5c1.1,0,1.9-0.5,2.5-1l0.1,0.6c0,0.1,0.1,0.2,0.2,0.2h0.8c0.1,0,0.1,0,0.2-0.1
						c0-0.1,0.1-0.1,0.1-0.2c-0.1-0.6-0.1-1.3-0.1-1.9V19.2z M299.1,20.2v1.5c0,0.1,0,0.3-0.1,0.4c-0.2,0.7-0.9,1.5-2.2,1.5
						c-0.7,0-1.4-0.4-1.4-1.5c0-0.5,0.1-0.8,0.5-1.1c0.5-0.5,1.6-0.8,3.1-0.8C299,20.2,299.1,20.2,299.1,20.2z"/>
					<path d="M307.9,15.7c-2.6,0-4.5,1.9-4.5,4.6c0,2.3,1.3,4,3.3,4.3l-0.6,0.9c0,0.1,0,0.2,0,0.2c0,0.1,0.1,0.1,0.2,0.1
						c1,0.1,1.1,0.3,1.1,0.5c0,0.1,0,0.4-0.6,0.4c-0.3,0-0.6-0.1-0.8-0.2c-0.1,0-0.1,0-0.2,0c-0.1,0-0.1,0.1-0.1,0.1l-0.2,0.6
						c0,0.1,0,0.2,0.1,0.3c0.3,0.2,0.8,0.3,1.1,0.3c1.1,0,1.8-0.6,1.8-1.6c0-0.6-0.4-1.1-1-1.3l0.2-0.4c1.1,0,2-0.4,2.3-0.6
						c0.1-0.1,0.2-0.2,0.1-0.3l-0.2-0.6c0-0.1-0.1-0.1-0.1-0.1c-0.1,0-0.1,0-0.2,0c-0.5,0.2-1.1,0.5-1.9,0.5c-1.8,0-3-1.3-3-3.3
						c0-1.7,1-3.4,3.1-3.4c0.9,0,1.5,0.3,1.8,0.4c0.1,0,0.1,0,0.2,0c0.1,0,0.1-0.1,0.1-0.1l0.3-0.7c0-0.1,0-0.2-0.1-0.3
						C309.8,16,309,15.7,307.9,15.7z"/>
					<path d="M314.2,14.8h0.6c0.1,0,0.2-0.1,0.2-0.2c0-0.1,0.1-0.5,0.2-0.5c0.1,0,0.3,0.1,0.7,0.3c0.4,0.2,0.7,0.4,1.1,0.4
						c0.5,0,1.3-0.2,1.3-1.7c0-0.1-0.1-0.2-0.2-0.2h-0.6c-0.1,0-0.2,0.1-0.2,0.2c0,0.5-0.2,0.5-0.2,0.5c-0.2,0-0.3-0.1-0.6-0.2
						l-0.2-0.1c-0.3-0.2-0.6-0.3-0.9-0.3c-0.3,0-0.6,0.1-0.8,0.3c-0.3,0.3-0.5,0.8-0.5,1.4C314,14.7,314.1,14.8,314.2,14.8z"/>
					<path d="M318.9,19.2c0-2.3-1.1-3.5-3.1-3.5c-0.9,0-1.8,0.3-2.5,0.7c-0.1,0.1-0.1,0.2-0.1,0.3l0.3,0.6c0,0.1,0.1,0.1,0.2,0.1
						c0.1,0,0.1,0,0.2,0c0.5-0.4,1.2-0.6,2-0.6c0.6,0,1,0.2,1.3,0.4c0.4,0.4,0.5,0.9,0.5,1.7c-2,0-3.4,0.4-4.2,1.3
						c-0.5,0.5-0.8,1.2-0.8,2c0,1.2,0.8,2.5,2.6,2.5c1.1,0,1.9-0.5,2.5-1l0.1,0.6c0,0.1,0.1,0.2,0.2,0.2h0.8c0.1,0,0.1,0,0.2-0.1
						s0.1-0.1,0.1-0.2c-0.1-0.6-0.1-1.3-0.1-1.9V19.2z M317.6,20.2v1.5c0,0.2,0,0.3-0.1,0.4c-0.2,0.7-0.9,1.5-2.2,1.5
						c-0.7,0-1.4-0.4-1.4-1.5c0-0.5,0.1-0.8,0.5-1.1c0.5-0.5,1.6-0.8,3.1-0.8C317.6,20.2,317.6,20.2,317.6,20.2z"/>
					<path d="M326.1,15.7c-2,0-4.1,1.6-4.1,4.6c0,2.6,1.6,4.5,4,4.5c2,0,4.2-1.4,4.2-4.6C330.2,17.6,328.5,15.7,326.1,15.7z
						 M328.9,20.2c0,1.9-1.2,3.4-2.8,3.4c-1.6,0-2.7-1.4-2.7-3.3c0-1.7,0.9-3.4,2.8-3.4C328.1,16.9,328.9,18.9,328.9,20.2z"/>
					<path d="M344.6,12.5c0-0.1-0.1-0.2-0.2-0.2h-0.8c-0.1,0-0.2,0.1-0.2,0.2V17c-0.5-0.5-1.3-1-2.5-1c-1,0-1.9,0.4-2.6,1.1
						c-0.9,0.9-1.3,2.1-1.3,3.6c0,2.5,1.6,4.4,3.8,4.4c1.1,0,2.1-0.5,2.7-1.2l0,0.8c0,0.1,0.1,0.2,0.2,0.2h0.7c0.1,0,0.1,0,0.2-0.1
						c0,0,0.1-0.1,0.1-0.2c0-0.5-0.1-1.2-0.1-1.9V12.5z M343.3,19.7v1.6c0,0.2,0,0.4-0.1,0.6c-0.3,1.2-1.3,2-2.4,2
						c-1.9,0-2.6-1.8-2.6-3.3c0-2.1,1.1-3.4,2.7-3.4c1.3,0,2.1,0.9,2.3,1.8C343.2,19.2,343.3,19.4,343.3,19.7z"/>
					<path d="M351.6,16c-2.3,0-3.9,1.9-3.9,4.7c0,2.6,1.6,4.4,4.1,4.4c1.5,0,2.4-0.4,2.7-0.6c0.1-0.1,0.1-0.2,0.1-0.3l-0.2-0.6
						c0-0.1-0.1-0.1-0.1-0.1c-0.1,0-0.1,0-0.2,0c-0.5,0.2-1.1,0.4-2.2,0.4c-1.8,0-2.8-1.2-2.9-3.2h5.8c0.1,0,0.2-0.1,0.2-0.2
						c0-0.2,0-0.3,0-0.5C355.1,18.5,354.4,16,351.6,16z M349.1,19.6c0.2-1.2,1-2.4,2.5-2.4c0.6,0,1.1,0.2,1.5,0.6
						c0.5,0.5,0.7,1.3,0.7,1.8H349.1z"/>
					<path d="M372.1,18.7h-3.5c-0.1,0-0.2,0.1-0.2,0.2v0.7c0,0.1,0.1,0.2,0.2,0.2h2.4v3.7c-0.3,0.1-1,0.3-2.2,0.3
						c-2.9,0-4.7-1.8-4.7-4.9c0-3,1.9-4.9,4.9-4.9c0.9,0,1.7,0.1,2.4,0.5c0.1,0,0.1,0,0.2,0c0.1,0,0.1-0.1,0.1-0.1l0.3-0.7
						c0-0.1,0-0.2-0.1-0.3c-0.5-0.3-1.6-0.5-2.8-0.5c-4.3,0-6.3,3.1-6.3,6.1c0,1.8,0.6,3.5,1.7,4.5c1.1,1.1,2.5,1.6,4.2,1.6
						c1.6,0,2.9-0.4,3.5-0.7c0.1,0,0.1-0.1,0.1-0.2v-5.2C372.3,18.8,372.2,18.7,372.1,18.7z"/>
					<path d="M381.4,19.5c0-2.3-1.1-3.5-3.1-3.5c-0.9,0-1.8,0.3-2.5,0.7c-0.1,0.1-0.1,0.2-0.1,0.3l0.3,0.6c0,0.1,0.1,0.1,0.2,0.1
						c0.1,0,0.1,0,0.2,0c0.5-0.4,1.2-0.6,1.9-0.6c0.6,0,1,0.1,1.3,0.4c0.4,0.4,0.5,0.9,0.5,1.7c-2,0-3.4,0.4-4.2,1.3
						c-0.5,0.5-0.8,1.2-0.8,2c0,1.2,0.8,2.5,2.6,2.5c1.1,0,1.9-0.5,2.5-1l0.1,0.6c0,0.1,0.1,0.2,0.2,0.2h0.8c0.1,0,0.1,0,0.2-0.1
						c0-0.1,0.1-0.1,0.1-0.2c-0.1-0.6-0.1-1.3-0.1-1.9V19.5z M380.1,20.5V22c0,0.2,0,0.3-0.1,0.4c-0.2,0.7-0.9,1.5-2.2,1.5
						c-0.7,0-1.4-0.4-1.4-1.5c0-0.5,0.1-0.8,0.5-1.1c0.5-0.5,1.6-0.8,3.1-0.8C380,20.5,380,20.5,380.1,20.5z"/>
					<path d="M394,16c-0.9,0-1.5,0.2-2.1,0.7c-0.3,0.2-0.5,0.5-0.7,0.8c-0.5-0.9-1.4-1.5-2.4-1.5c-1,0-1.9,0.4-2.5,1.2l0-0.8
						c0-0.1-0.1-0.2-0.2-0.2h-0.8c-0.1,0-0.1,0-0.2,0.1c0,0-0.1,0.1-0.1,0.2c0,0.6,0.1,1.2,0.1,1.9v6.2c0,0.1,0.1,0.2,0.2,0.2h0.8
						c0.1,0,0.2-0.1,0.2-0.2v-5.1c0-0.2,0-0.5,0.1-0.7c0.3-0.8,1-1.7,2-1.7c1.1,0,1.8,0.9,1.8,2.3v5.1c0,0.1,0.1,0.2,0.2,0.2h0.8
						c0.1,0,0.2-0.1,0.2-0.2v-5.3c0-0.3,0.1-0.5,0.1-0.7c0.3-0.7,1-1.5,1.9-1.5c1.6,0,1.9,1.5,1.9,2.7v4.7c0,0.1,0.1,0.2,0.2,0.2
						h0.8c0.1,0,0.2-0.1,0.2-0.2v-4.8C396.9,16.2,394.4,16,394,16z"/>
					<path d="M403.9,16c-2.3,0-3.9,1.9-3.9,4.7c0,2.6,1.6,4.4,4.1,4.4c1.5,0,2.4-0.4,2.7-0.6c0.1-0.1,0.1-0.2,0.1-0.3l-0.2-0.6
						c0-0.1-0.1-0.1-0.1-0.1c-0.1,0-0.1,0-0.2,0c-0.5,0.2-1.1,0.4-2.2,0.4c-1.8,0-2.8-1.2-2.9-3.2h5.8c0.1,0,0.2-0.1,0.2-0.2
						c0-0.2,0-0.3,0-0.5C407.3,18.5,406.6,16,403.9,16z M401.3,19.6c0.2-1.2,1-2.4,2.5-2.4c0.6,0,1.1,0.2,1.5,0.6
						c0.5,0.5,0.7,1.3,0.7,1.8H401.3z"/>
					<path d="M412.9,19.8c-1.2-0.5-1.5-0.8-1.5-1.5c0-0.6,0.4-1.2,1.3-1.2c0.6,0,1.1,0.2,1.5,0.5c0.1,0,0.1,0.1,0.2,0
						c0.1,0,0.1-0.1,0.2-0.1l0.3-0.7c0-0.1,0-0.2-0.1-0.3c-0.5-0.4-1.2-0.6-1.9-0.6c-1.8,0-2.8,1.2-2.8,2.5c0,1.1,0.8,1.9,2.2,2.5
						c1.2,0.5,1.6,0.9,1.6,1.6c0,0.8-0.6,1.3-1.7,1.3c-0.7,0-1.4-0.3-1.7-0.5c-0.1,0-0.1,0-0.2,0c-0.1,0-0.1,0.1-0.1,0.1l-0.3,0.7
						c0,0.1,0,0.2,0.1,0.3c0.6,0.4,1.4,0.6,2.2,0.6c1.8,0,3-1,3-2.6C415.2,20.9,414,20.3,412.9,19.8z"/>
					<path d="M427,16c-2.3,0-3.9,1.9-3.9,4.7c0,2.6,1.6,4.4,4.1,4.4c1.5,0,2.4-0.4,2.7-0.6c0.1-0.1,0.1-0.2,0.1-0.3l-0.2-0.6
						c0-0.1-0.1-0.1-0.1-0.1c-0.1,0-0.1,0-0.2,0c-0.5,0.2-1.1,0.4-2.2,0.4c-1.8,0-2.8-1.2-2.9-3.2h5.8c0.1,0,0.2-0.1,0.2-0.2
						c0-0.2,0-0.3,0-0.5C430.4,18.5,429.7,16,427,16z M424.4,19.6c0.2-1.2,1-2.4,2.5-2.4c0.6,0,1.1,0.2,1.5,0.6
						c0.5,0.5,0.7,1.3,0.7,1.8H424.4z"/>
					<path d="M443.4,13c0-0.1-0.1-0.2-0.2-0.2h-0.8c-0.1,0-0.2,0.1-0.2,0.2L438,24.6c0,0.1,0,0.2,0,0.2c0,0.1,0.1,0.1,0.2,0.1h0.8
						c0.1,0,0.2-0.1,0.2-0.2l1.4-3.9h4.2l1.4,3.9c0,0.1,0.1,0.2,0.2,0.2h0.8c0.1,0,0.2,0,0.2-0.1c0-0.1,0.1-0.1,0-0.2L443.4,13z
						 M444.5,19.7h-3.4l1.3-3.6c0.1-0.4,0.3-0.8,0.4-1.2c0.1,0.4,0.2,0.8,0.4,1.2L444.5,19.7z"/>
					<path d="M454.5,16c-1.2,0-2.2,0.4-2.8,1.3l0-0.9c0-0.1-0.1-0.2-0.2-0.2h-0.8c-0.1,0-0.1,0-0.2,0.1c0,0-0.1,0.1-0.1,0.2
						c0,0.7,0.1,1.5,0.1,2.6v9c0,0.1,0.1,0.2,0.2,0.2h0.8c0.1,0,0.2-0.1,0.2-0.2v-4c0.6,0.7,1.5,1.1,2.6,1.1c2,0,4-1.4,4-4.7
						C458.3,17.8,456.7,16,454.5,16z M457,20.4c0,2.1-1,3.5-2.7,3.5c-1.2,0-2.2-0.8-2.5-1.9c0-0.2-0.1-0.4-0.1-0.6v-1.6
						c0-0.2,0-0.4,0.1-0.6l0-0.1c0.3-1.2,1.3-2,2.5-2C456.1,17.2,457,18.9,457,20.4z"/>
					<path d="M465.5,16c-1.2,0-2.2,0.4-2.8,1.3l0-0.9c0-0.1-0.1-0.2-0.2-0.2h-0.8c-0.1,0-0.1,0-0.2,0.1c0,0-0.1,0.1-0.1,0.2
						c0,0.7,0.1,1.5,0.1,2.6v9c0,0.1,0.1,0.2,0.2,0.2h0.8c0.1,0,0.2-0.1,0.2-0.2v-4c0.6,0.7,1.5,1.1,2.6,1.1c2,0,4-1.4,4-4.7
						C469.3,17.8,467.7,16,465.5,16z M468,20.4c0,2.1-1,3.5-2.7,3.5c-1.2,0-2.2-0.8-2.5-1.9c0-0.2-0.1-0.4-0.1-0.6v-1.6
						c0-0.2,0-0.4,0.1-0.6l0-0.1c0.3-1.2,1.3-2,2.5-2C467.1,17.2,468,18.9,468,20.4z"/>
					<path d="M474.9,19.8c-1.2-0.5-1.5-0.8-1.5-1.5c0-0.6,0.4-1.2,1.3-1.2c0.6,0,1.1,0.2,1.5,0.5c0.1,0,0.1,0.1,0.2,0
						c0.1,0,0.1-0.1,0.2-0.1l0.3-0.7c0-0.1,0-0.2-0.1-0.3c-0.5-0.4-1.2-0.6-1.9-0.6c-1.8,0-2.8,1.2-2.8,2.5c0,1.1,0.8,1.9,2.2,2.5
						c1.2,0.5,1.6,0.9,1.6,1.6c0,0.8-0.6,1.3-1.7,1.3c-0.8,0-1.4-0.3-1.7-0.5c-0.1,0-0.1,0-0.2,0c-0.1,0-0.1,0.1-0.1,0.1l-0.3,0.7
						c0,0.1,0,0.2,0.1,0.3c0.6,0.4,1.4,0.6,2.2,0.6c1.8,0,3-1,3-2.6C477.1,20.9,476,20.3,474.9,19.8z"/>
				</g>
			</g>
		</g>
		<g>
			<path d="M577.4,14.8c-3.2,0-5.8,2.6-5.8,5.8v0c0,3.2,2.6,5.7,5.8,5.7c3.2,0,5.8-2.6,5.8-5.8C583.1,17.3,580.6,14.8,577.4,14.8z
				 M577.3,24.9c-2.4,0-4.4-1.9-4.4-4.4c0-2.5,1.9-4.4,4.4-4.4c2.4,0,4.4,1.9,4.4,4.4v0C581.7,23,579.8,24.9,577.3,24.9z"/>
			<path d="M579.4,21.4c-0.2-0.2-0.5-0.2-0.7,0c-0.4,0.4-0.7,0.5-1.1,0.5c-0.7,0-1.3-0.6-1.3-1.4c0-0.8,0.5-1.4,1.2-1.4
				c0.4,0,0.7,0.2,1.1,0.5c0.2,0.2,0.5,0.2,0.7,0l0.4-0.4c0.1-0.1,0.1-0.2,0.1-0.3c0-0.1-0.1-0.3-0.2-0.3c-0.5-0.5-1.1-0.9-2.1-0.9
				c-1.5,0-2.8,1.3-2.8,2.8v0c0,1.6,1.2,2.8,2.7,2.8c1,0,1.7-0.5,2.1-0.9c0.1-0.1,0.1-0.2,0.1-0.3c0-0.1,0-0.3-0.1-0.3L579.4,21.4z"
				/>
			<path d="M592.9,23.7h-3.7l1.7-1.6c1.6-1.5,2.3-2.4,2.3-3.8c0-1.6-1.3-2.9-3.1-2.9c-1.9,0-2.8,1-3.5,2.1c-0.1,0.2-0.1,0.5,0.1,0.7
				l0.5,0.3c0.2,0.1,0.5,0.1,0.7-0.1c0.7-1,1.3-1.4,2.2-1.4c0.7,0,1.5,0.5,1.5,1.4c0,0.7-0.3,1.3-1.8,2.6l-3.3,2.9
				c-0.1,0.1-0.2,0.2-0.2,0.4v0.5c0,0.3,0.2,0.5,0.5,0.5h6c0.3,0,0.5-0.2,0.5-0.5v-0.6C593.4,23.9,593.2,23.7,592.9,23.7z"/>
			<path d="M601.9,15.5c-2.3,0-4.1,2.1-4.1,5v0c0,2.9,1.7,5,4.1,5c2.3,0,4.1-2.1,4.1-5C606,17.6,604.3,15.5,601.9,15.5z M601.9,23.9
				c-1.5,0-2.5-1.8-2.5-3.5c0-1.7,0.9-3.4,2.5-3.4c1.5,0,2.5,1.8,2.5,3.4v0C604.4,22.2,603.5,23.9,601.9,23.9z"/>
			<path d="M615.9,23.7h-3.7l1.7-1.6c1.6-1.5,2.3-2.4,2.3-3.8c0-1.6-1.3-2.9-3.1-2.9c-1.9,0-2.8,1-3.5,2.1c-0.1,0.2-0.1,0.5,0.1,0.7
				l0.5,0.3c0.2,0.1,0.5,0.1,0.7-0.1c0.7-1,1.3-1.4,2.2-1.4c0.7,0,1.5,0.5,1.5,1.4c0,0.7-0.3,1.3-1.8,2.6l-3.3,2.9
				c-0.1,0.1-0.2,0.2-0.2,0.4v0.5c0,0.3,0.2,0.5,0.5,0.5h6c0.3,0,0.5-0.2,0.5-0.5v-0.6C616.4,23.9,616.2,23.7,615.9,23.7z"/>
			<path d="M625.9,23.7h-3.7l1.7-1.6c1.6-1.5,2.3-2.4,2.3-3.8c0-1.6-1.3-2.9-3.1-2.9c-1.9,0-2.8,1-3.5,2.1c-0.1,0.2-0.1,0.5,0.1,0.7
				l0.5,0.3c0.2,0.1,0.5,0.1,0.7-0.1c0.7-1,1.3-1.4,2.2-1.4c0.7,0,1.5,0.5,1.5,1.4c0,0.7-0.3,1.3-1.8,2.6l-3.3,2.9
				c-0.1,0.1-0.2,0.2-0.2,0.4v0.5c0,0.3,0.2,0.5,0.5,0.5h6c0.3,0,0.5-0.2,0.5-0.5v-0.6C626.4,23.9,626.2,23.7,625.9,23.7z"/>
		</g>
		<g>
			<path d="M19,0.5l-0.6,0h-3c3.5,0.9,5.8,3.9,5.8,11.2V28h4.4c1.9,0,3.9,0.9,4.6,2.7v-19C30.2,5.6,25.2,0.5,19,0.5z"/>
			<path d="M17.7,9.6c1,0,1.9,0.7,2.1,1.6h0.1c-0.1-8.6-3.3-10.8-8.8-10.7H8.8c1.7,0.7,2.9,2.6,2.9,4.5v4.5H17.7z"/>
			<path d="M13.2,38.1H16c-3.7-0.9-5.5-4.2-5.5-11.2V5c0-2.5-2-4.5-4.5-4.5c0,0,0,0-0.1,0c-0.8,0-1.5,0.2-2.2,0.5
				C2.4,1.8,1.5,3.3,1.5,5v21.8c0,6.2,5,11.2,11.2,11.2L13.2,38.1z"/>
			<g>
				<g>
					<path d="M25.6,29H13.7c-1,0-1.9-0.7-2.1-1.7h0c-0.1,8.8,4.1,10.8,8.9,10.8h5.1c0,0,0,0,0,0c2.5,0,4.5-2,4.5-4.5
						C30.1,31.1,28.1,29,25.6,29z M17.3,35.1c-1,0-1.9-0.8-1.9-1.9c0-1,0.8-1.9,1.9-1.9c1,0,1.9,0.8,1.9,1.9
						C19.1,34.2,18.3,35.1,17.3,35.1z"/>
				</g>
			</g>
		</g>
	</g>
</g>
</svg>
